<svg xmlns="http://www.w3.org/2000/svg" viewBox="0 0 600 800" preserveAspectRatio="xMidYMid slice">
  <rect width="600" height="800" fill="#ffffff"/>
  <!-- Left double rule border -->
  <line x1="36" y1="36"  x2="36"  y2="764" stroke="#1f2937" stroke-width="1"/>
  <line x1="42" y1="36"  x2="42"  y2="764" stroke="#1f2937" stroke-width="2"/>
  <line x1="36" y1="36"  x2="564" y2="36"  stroke="#1f2937" stroke-width="1"/>
  <line x1="36" y1="42"  x2="564" y2="42"  stroke="#1f2937" stroke-width="2"/>
  <line x1="564" y1="36" x2="564" y2="764" stroke="#1f2937" stroke-width="1"/>
  <line x1="558" y1="36" x2="558" y2="764" stroke="#1f2937" stroke-width="2"/>
  <line x1="36" y1="764" x2="564" y2="764" stroke="#1f2937" stroke-width="1"/>
  <line x1="36" y1="758" x2="564" y2="758" stroke="#1f2937" stroke-width="2"/>
  <!-- Centered name -->
  <text x="300" y="100" text-anchor="middle" font-family="Georgia, 'Times New Roman', serif" font-size="32" font-weight="700" fill="#111827" letter-spacing="6">BASTION</text>
  <text x="300" y="128" text-anchor="middle" font-family="Georgia, 'Times New Roman', serif" font-size="12" fill="#6b7280" letter-spacing="4">— PROFESSIONAL DOSSIER —</text>
  <!-- Objective -->
  <text x="70" y="190" font-family="Georgia, 'Times New Roman', serif" font-size="13" font-weight="700" fill="#111827" letter-spacing="3">OBJECTIVE</text>
  <rect x="70" y="206" width="460" height="6" rx="2" fill="#e5e7eb"/>
  <rect x="70" y="218" width="440" height="6" rx="2" fill="#e5e7eb"/>
  <rect x="70" y="230" width="400" height="6" rx="2" fill="#e5e7eb"/>
  <!-- Single column -->
  <text x="70" y="280" font-family="Georgia, 'Times New Roman', serif" font-size="13" font-weight="700" fill="#111827" letter-spacing="3">EMPLOYMENT HISTORY</text>
  <rect x="70" y="298" width="280" height="10" rx="2" fill="#111827"/>
  <rect x="70" y="314" width="120" height="7" rx="2" fill="#6b7280"/>
  <rect x="70" y="332" width="460" height="5" rx="2" fill="#e5e7eb"/>
  <rect x="70" y="342" width="450" height="5" rx="2" fill="#e5e7eb"/>
  <rect x="70" y="352" width="440" height="5" rx="2" fill="#e5e7eb"/>
  <rect x="70" y="362" width="400" height="5" rx="2" fill="#e5e7eb"/>
  <rect x="70" y="388" width="280" height="10" rx="2" fill="#111827"/>
  <rect x="70" y="404" width="120" height="7" rx="2" fill="#6b7280"/>
  <rect x="70" y="422" width="460" height="5" rx="2" fill="#e5e7eb"/>
  <rect x="70" y="432" width="420" height="5" rx="2" fill="#e5e7eb"/>
  <!-- Skills -->
  <text x="70" y="490" font-family="Georgia, 'Times New Roman', serif" font-size="13" font-weight="700" fill="#111827" letter-spacing="3">CORE COMPETENCIES</text>
  <g font-family="Georgia, 'Times New Roman', serif" font-size="11" fill="#111827">
    <text x="70"  y="520">• Risk Management</text>
    <text x="260" y="520">• Compliance</text>
    <text x="420" y="520">• Strategy</text>
    <text x="70"  y="546">• Operations</text>
    <text x="260" y="546">• Leadership</text>
    <text x="420" y="546">• Negotiation</text>
  </g>
</svg>
