<svg xmlns="http://www.w3.org/2000/svg" viewBox="0 0 600 800" preserveAspectRatio="xMidYMid slice">
  <rect width="600" height="800" fill="#ffffff"/>
  <!-- Header -->
  <text x="60" y="80" font-family="Arial, 'Helvetica Neue', sans-serif" font-size="28" font-weight="700" fill="#000000">Beacon</text>
  <text x="60" y="106" font-family="Arial, 'Helvetica Neue', sans-serif" font-size="13" fill="#000000">Senior Data Analyst · Beacon@example.com · +1 555 0177</text>
  <line x1="60" y1="124" x2="540" y2="124" stroke="#000000" stroke-width="1"/>
  <!-- Summary -->
  <text x="60" y="160" font-family="Arial, 'Helvetica Neue', sans-serif" font-size="13" font-weight="700" fill="#000000">Summary</text>
  <rect x="60" y="172" width="480" height="6" rx="2" fill="#d4d4d4"/>
  <rect x="60" y="184" width="460" height="6" rx="2" fill="#d4d4d4"/>
  <rect x="60" y="196" width="430" height="6" rx="2" fill="#d4d4d4"/>
  <!-- Skills -->
  <text x="60" y="234" font-family="Arial, 'Helvetica Neue', sans-serif" font-size="13" font-weight="700" fill="#000000">Skills</text>
  <text x="60" y="256" font-family="Arial, 'Helvetica Neue', sans-serif" font-size="11" fill="#000000">Python, SQL, dbt, AWS, Snowflake, Tableau, Looker, Airflow, Statistics, A/B Testing</text>
  <!-- Experience -->
  <text x="60" y="294" font-family="Arial, 'Helvetica Neue', sans-serif" font-size="13" font-weight="700" fill="#000000">Experience</text>
  <text x="60" y="316" font-family="Arial, 'Helvetica Neue', sans-serif" font-size="12" font-weight="700" fill="#000000">Senior Data Analyst · Acme Corp</text>
  <text x="60" y="334" font-family="Arial, 'Helvetica Neue', sans-serif" font-size="11" fill="#000000">2021 — Present</text>
  <rect x="60" y="350" width="480" height="5" rx="2" fill="#d4d4d4"/>
  <rect x="60" y="360" width="470" height="5" rx="2" fill="#d4d4d4"/>
  <rect x="60" y="370" width="450" height="5" rx="2" fill="#d4d4d4"/>
  <rect x="60" y="380" width="430" height="5" rx="2" fill="#d4d4d4"/>
  <text x="60" y="412" font-family="Arial, 'Helvetica Neue', sans-serif" font-size="12" font-weight="700" fill="#000000">Data Analyst · Insight Labs</text>
  <text x="60" y="430" font-family="Arial, 'Helvetica Neue', sans-serif" font-size="11" fill="#000000">2018 — 2021</text>
  <rect x="60" y="446" width="480" height="5" rx="2" fill="#d4d4d4"/>
  <rect x="60" y="456" width="460" height="5" rx="2" fill="#d4d4d4"/>
  <rect x="60" y="466" width="430" height="5" rx="2" fill="#d4d4d4"/>
  <!-- Education -->
  <text x="60" y="510" font-family="Arial, 'Helvetica Neue', sans-serif" font-size="13" font-weight="700" fill="#000000">Education</text>
  <text x="60" y="532" font-family="Arial, 'Helvetica Neue', sans-serif" font-size="12" font-weight="700" fill="#000000">B.Sc. Statistics · State University</text>
  <text x="60" y="550" font-family="Arial, 'Helvetica Neue', sans-serif" font-size="11" fill="#000000">2014 — 2018</text>
</svg>