<svg xmlns="http://www.w3.org/2000/svg" viewBox="0 0 600 800" preserveAspectRatio="xMidYMid slice">
  <rect width="600" height="800" fill="#0c0a09"/>
  <!-- Asymmetric side block -->
  <rect x="40" y="40" width="160" height="720" fill="#18181b"/>
  <text x="60" y="120" font-family="Inter, system-ui, sans-serif" font-size="34" font-weight="900" fill="#fbbf24">FO</text>
  <text x="60" y="158" font-family="Inter, system-ui, sans-serif" font-size="34" font-weight="900" fill="#fbbf24">LIO</text>
  <text x="60" y="220" font-family="Inter, system-ui, sans-serif" font-size="11" fill="#a3a3a3" letter-spacing="4">FOLIO / 2024</text>
  <line x1="60" y1="240" x2="180" y2="240" stroke="#fbbf24" stroke-width="2"/>
  <!-- Sidebar content -->
  <text x="60" y="290" font-family="Inter, system-ui, sans-serif" font-size="10" font-weight="700" fill="#fbbf24" letter-spacing="3">CONTACT</text>
  <rect x="60" y="306" width="120" height="5" rx="2" fill="#52525b"/>
  <rect x="60" y="318" width="100" height="5" rx="2" fill="#52525b"/>
  <text x="60" y="370" font-family="Inter, system-ui, sans-serif" font-size="10" font-weight="700" fill="#fbbf24" letter-spacing="3">TOOLS</text>
  <rect x="60" y="386" width="120" height="5" rx="2" fill="#52525b"/>
  <rect x="60" y="398" width="100" height="5" rx="2" fill="#52525b"/>
  <rect x="60" y="410" width="110" height="5" rx="2" fill="#52525b"/>
  <!-- Main canvas -->
  <text x="240" y="120" font-family="Inter, system-ui, sans-serif" font-size="32" font-weight="800" fill="#fafafa">Dario Vega</text>
  <text x="240" y="148" font-family="Inter, system-ui, sans-serif" font-size="13" fill="#fbbf24">FILMMAKER · WRITER</text>
  <rect x="240" y="170" width="300" height="1" fill="#fbbf24"/>
  <text x="240" y="210" font-family="Inter, system-ui, sans-serif" font-size="10" font-weight="700" fill="#fbbf24" letter-spacing="3">FEATURED</text>
  <!-- Project cards -->
  <rect x="240" y="230" width="300" height="80" fill="#18181b"/>
  <rect x="240" y="230" width="80" height="80" fill="#7f1d1d"/>
  <text x="332" y="260" font-family="Inter, system-ui, sans-serif" font-size="13" font-weight="700" fill="#fafafa">Cinema Nimbus</text>
  <rect x="332" y="270" width="180" height="4" rx="2" fill="#52525b"/>
  <rect x="332" y="280" width="160" height="4" rx="2" fill="#52525b"/>
  <rect x="240" y="322" width="300" height="80" fill="#18181b"/>
  <rect x="240" y="322" width="80" height="80" fill="#1e3a8a"/>
  <text x="332" y="352" font-family="Inter, system-ui, sans-serif" font-size="13" font-weight="700" fill="#fafafa">Echoes of Eden</text>
  <rect x="332" y="362" width="180" height="4" rx="2" fill="#52525b"/>
  <rect x="332" y="372" width="140" height="4" rx="2" fill="#52525b"/>
  <text x="240" y="430" font-family="Inter, system-ui, sans-serif" font-size="10" font-weight="700" fill="#fbbf24" letter-spacing="3">FILMOGRAPHY</text>
  <rect x="240" y="450" width="300" height="4" rx="2" fill="#52525b"/>
  <rect x="240" y="460" width="280" height="4" rx="2" fill="#52525b"/>
  <rect x="240" y="470" width="260" height="4" rx="2" fill="#52525b"/>
</svg>