<svg xmlns="http://www.w3.org/2000/svg" viewBox="0 0 600 800" preserveAspectRatio="xMidYMid slice">
  <rect width="600" height="800" fill="#fafafa"/>
  <!-- Top header with border lattice -->
  <rect x="40" y="40" width="520" height="100" fill="#0f172a"/>
  <g stroke="#fbbf24" stroke-width="1" fill="none">
    <line x1="40"  y1="40" x2="560" y2="140"/>
    <line x1="560" y1="40" x2="40"  y2="140"/>
    <line x1="40"  y1="40" x2="40"  y2="140"/>
    <line x1="560" y1="40" x2="560" y2="140"/>
  </g>
  <text x="60" y="90" font-family="Georgia, 'Times New Roman', serif" font-size="26" font-weight="700" fill="#ffffff">LATTICE</text>
  <text x="60" y="115" font-family="Georgia, 'Times New Roman', serif" font-size="11" fill="#fbbf24" letter-spacing="3">CONSULTING · 2024 EDITION</text>
  <text x="540" y="90" text-anchor="end" font-family="Georgia, 'Times New Roman', serif" font-size="11" fill="#fbbf24">M. HARRISON</text>
  <!-- Body -->
  <text x="40" y="190" font-family="Georgia, 'Times New Roman', serif" font-size="13" font-weight="700" fill="#0f172a" letter-spacing="2">PROFILE</text>
  <line x1="40" y1="196" x2="560" y2="196" stroke="#0f172a" stroke-width="1"/>
  <rect x="40" y="210" width="520" height="6" rx="2" fill="#d4d4d8"/>
  <rect x="40" y="222" width="500" height="6" rx="2" fill="#d4d4d8"/>
  <rect x="40" y="234" width="470" height="6" rx="2" fill="#d4d4d8"/>
  <text x="40" y="280" font-family="Georgia, 'Times New Roman', serif" font-size="13" font-weight="700" fill="#0f172a" letter-spacing="2">EXPERIENCE</text>
  <line x1="40" y1="286" x2="560" y2="286" stroke="#0f172a" stroke-width="1"/>
  <rect x="40" y="300" width="260" height="10" rx="2" fill="#0f172a"/>
  <text x="40" y="322" font-family="Georgia, 'Times New Roman', serif" font-size="11" fill="#78350f" font-style="italic">Deloitte · 2019 — Present</text>
  <rect x="40" y="338" width="520" height="5" rx="2" fill="#d4d4d8"/>
  <rect x="40" y="348" width="500" height="5" rx="2" fill="#d4d4d8"/>
  <rect x="40" y="358" width="480" height="5" rx="2" fill="#d4d4d8"/>
  <rect x="40" y="384" width="260" height="10" rx="2" fill="#0f172a"/>
  <text x="40" y="406" font-family="Georgia, 'Times New Roman', serif" font-size="11" fill="#78350f" font-style="italic">PwC · 2015 — 2019</text>
  <rect x="40" y="422" width="520" height="5" rx="2" fill="#d4d4d8"/>
  <rect x="40" y="432" width="470" height="5" rx="2" fill="#d4d4d8"/>
  <text x="40" y="480" font-family="Georgia, 'Times New Roman', serif" font-size="13" font-weight="700" fill="#0f172a" letter-spacing="2">CAPABILITIES</text>
  <line x1="40" y1="486" x2="560" y2="486" stroke="#0f172a" stroke-width="1"/>
  <g font-family="Georgia, 'Times New Roman', serif" font-size="11" fill="#0f172a">
    <text x="40"  y="510">Strategy</text>
    <text x="180" y="510">M&amp;A</text>
    <text x="260" y="510">Transformation</text>
    <text x="420" y="510">Risk</text>
    <text x="40"  y="540">Operations</text>
    <text x="180" y="540">Analytics</text>
    <text x="320" y="540">Change Mgmt</text>
  </g>
</svg>
