<svg xmlns="http://www.w3.org/2000/svg" viewBox="0 0 600 800" preserveAspectRatio="xMidYMid slice">
  <rect width="600" height="800" fill="#0a0a0a"/>
  <rect x="0" y="0" width="600" height="6" fill="#fafafa"/>
  <text x="60" y="120" font-family="Inter, system-ui, sans-serif" font-size="56" font-weight="800" fill="#fafafa" letter-spacing="-2">M.</text>
  <text x="60" y="156" font-family="Inter, system-ui, sans-serif" font-size="13" fill="#a3a3a3" letter-spacing="4">MONOLITH / SENIOR ENGINEER</text>
  <rect x="60" y="180" width="60" height="1" fill="#fafafa"/>
  <!-- Sections -->
  <text x="60" y="230" font-family="Inter, system-ui, sans-serif" font-size="11" font-weight="700" fill="#fafafa" letter-spacing="6">ABOUT</text>
  <rect x="60" y="250" width="480" height="6" rx="2" fill="#525252"/>
  <rect x="60" y="262" width="470" height="6" rx="2" fill="#525252"/>
  <rect x="60" y="274" width="430" height="6" rx="2" fill="#525252"/>
  <rect x="60" y="286" width="380" height="6" rx="2" fill="#525252"/>
  <text x="60" y="330" font-family="Inter, system-ui, sans-serif" font-size="11" font-weight="700" fill="#fafafa" letter-spacing="6">EXPERIENCE</text>
  <rect x="60" y="350" width="280" height="9" rx="2" fill="#fafafa"/>
  <rect x="60" y="366" width="120" height="7" rx="2" fill="#a3a3a3"/>
  <rect x="60" y="384" width="480" height="5" rx="2" fill="#525252"/>
  <rect x="60" y="394" width="470" height="5" rx="2" fill="#525252"/>
  <rect x="60" y="404" width="450" height="5" rx="2" fill="#525252"/>
  <rect x="60" y="430" width="280" height="9" rx="2" fill="#fafafa"/>
  <rect x="60" y="446" width="120" height="7" rx="2" fill="#a3a3a3"/>
  <rect x="60" y="464" width="480" height="5" rx="2" fill="#525252"/>
  <rect x="60" y="474" width="420" height="5" rx="2" fill="#525252"/>
  <text x="60" y="520" font-family="Inter, system-ui, sans-serif" font-size="11" font-weight="700" fill="#fafafa" letter-spacing="6">SKILLS</text>
  <g font-family="Inter, system-ui, sans-serif" font-size="11" fill="#fafafa">
    <text x="60"  y="550">TypeScript</text>
    <text x="180" y="550">React</text>
    <text x="260" y="550">Node.js</text>
    <text x="360" y="550">AWS</text>
    <text x="430" y="550">Postgres</text>
    <text x="60"  y="575">Docker</text>
    <text x="160" y="575">GraphQL</text>
    <text x="260" y="575">Redis</text>
  </g>
</svg>
