<svg xmlns="http://www.w3.org/2000/svg" viewBox="0 0 600 800" preserveAspectRatio="xMidYMid slice">
  <rect width="600" height="800" fill="#ffffff"/>
  <text x="60" y="80" font-family="Arial, 'Helvetica Neue', sans-serif" font-size="26" font-weight="700" fill="#000000">Daniel Plumb</text>
  <text x="60" y="102" font-family="Arial, 'Helvetica Neue', sans-serif" font-size="12" fill="#000000">Master Plumber · plumb@example.com · Toronto</text>
  <line x1="60" y1="120" x2="540" y2="120" stroke="#000000" stroke-width="2"/>
  <text x="60" y="160" font-family="Arial, 'Helvetica Neue', sans-serif" font-size="13" font-weight="700" fill="#000000">Summary</text>
  <rect x="60" y="174" width="480" height="6" rx="2" fill="#d4d4d4"/>
  <rect x="60" y="186" width="470" height="6" rx="2" fill="#d4d4d4"/>
  <rect x="60" y="198" width="430" height="6" rx="2" fill="#d4d4d4"/>
  <text x="60" y="234" font-family="Arial, 'Helvetica Neue', sans-serif" font-size="13" font-weight="700" fill="#000000">Skills</text>
  <text x="60" y="256" font-family="Arial, 'Helvetica Neue', sans-serif" font-size="11" fill="#000000">Pipefitting, Welding, Blueprint Reading, OSHA-30, Gas Lines, Backflow, Estimates</text>
  <text x="60" y="296" font-family="Arial, 'Helvetica Neue', sans-serif" font-size="13" font-weight="700" fill="#000000">Experience</text>
  <text x="60" y="318" font-family="Arial, 'Helvetica Neue', sans-serif" font-size="12" font-weight="700" fill="#000000">PLUMB &amp; SONS — Foreman</text>
  <text x="60" y="336" font-family="Arial, 'Helvetica Neue', sans-serif" font-size="11" fill="#000000">2018 — Present</text>
  <rect x="60" y="352" width="480" height="5" rx="2" fill="#d4d4d4"/>
  <rect x="60" y="362" width="470" height="5" rx="2" fill="#d4d4d4"/>
  <rect x="60" y="372" width="450" height="5" rx="2" fill="#d4d4d4"/>
  <text x="60" y="404" font-family="Arial, 'Helvetica Neue', sans-serif" font-size="12" font-weight="700" fill="#000000">QUICKFIX — Journeyman</text>
  <text x="60" y="422" font-family="Arial, 'Helvetica Neue', sans-serif" font-size="11" fill="#000000">2013 — 2018</text>
  <rect x="60" y="438" width="480" height="5" rx="2" fill="#d4d4d4"/>
  <rect x="60" y="448" width="460" height="5" rx="2" fill="#d4d4d4"/>
  <text x="60" y="490" font-family="Arial, 'Helvetica Neue', sans-serif" font-size="13" font-weight="700" fill="#000000">Certifications</text>
  <text x="60" y="512" font-family="Arial, 'Helvetica Neue', sans-serif" font-size="11" fill="#000000">Red Seal Plumber (2013)  ·  Backflow Prevention (2019)  ·  OSHA-30 (2021)</text>
  <text x="60" y="552" font-family="Arial, 'Helvetica Neue', sans-serif" font-size="13" font-weight="700" fill="#000000">Education</text>
  <text x="60" y="574" font-family="Arial, 'Helvetica Neue', sans-serif" font-size="12" font-weight="700" fill="#000000">Centennial College — Plumbing Techniques</text>
</svg>