<svg xmlns="http://www.w3.org/2000/svg" viewBox="0 0 600 800" preserveAspectRatio="xMidYMid slice">
  <rect width="600" height="800" fill="#0a0a0a"/>
  <!-- Prism triangle -->
  <polygon points="40,40 200,200 40,360" fill="#ec4899"/>
  <polygon points="200,200 40,360 220,360" fill="#a855f7" opacity="0.9"/>
  <polygon points="200,200 220,360 380,200" fill="#3b82f6" opacity="0.9"/>
  <text x="240" y="170" font-family="Inter, system-ui, sans-serif" font-size="44" font-weight="800" fill="#ffffff" letter-spacing="-1">PRISM</text>
  <text x="240" y="200" font-family="Inter, system-ui, sans-serif" font-size="13" fill="#fbbf24">Creative Director · prism@example.com</text>
  <line x1="40" y1="420" x2="560" y2="420" stroke="#3f3f46" stroke-width="1"/>
  <text x="40" y="460" font-family="Inter, system-ui, sans-serif" font-size="11" font-weight="700" fill="#ec4899" letter-spacing="3">SELECTED WORK</text>
  <rect x="40" y="478" width="240" height="8" rx="2" fill="#ffffff"/>
  <rect x="40" y="494" width="180" height="6" rx="2" fill="#a1a1aa"/>
  <rect x="40" y="510" width="220" height="5" rx="2" fill="#52525b"/>
  <rect x="40" y="520" width="200" height="5" rx="2" fill="#52525b"/>
  <rect x="40" y="530" width="180" height="5" rx="2" fill="#52525b"/>
  <rect x="40" y="556" width="240" height="8" rx="2" fill="#ffffff"/>
  <rect x="40" y="572" width="180" height="6" rx="2" fill="#a1a1aa"/>
  <rect x="40" y="588" width="220" height="5" rx="2" fill="#52525b"/>
  <rect x="40" y="598" width="190" height="5" rx="2" fill="#52525b"/>
  <text x="340" y="460" font-family="Inter, system-ui, sans-serif" font-size="11" font-weight="700" fill="#3b82f6" letter-spacing="3">RECOGNITION</text>
  <g font-family="Inter, system-ui, sans-serif" font-size="11" fill="#d4d4d8">
    <text x="340" y="485">AWWWARDS — SOTD</text>
    <text x="340" y="510">CSS Design Awards</text>
    <text x="340" y="535">FWA</text>
    <text x="340" y="560">D&amp;AD Wood Pencil</text>
    <text x="340" y="585">Communication Arts</text>
  </g>
</svg>