<svg xmlns="http://www.w3.org/2000/svg" viewBox="0 0 600 800" preserveAspectRatio="xMidYMid slice">
  <rect width="600" height="800" fill="#f8fafc"/>
  <!-- Header band -->
  <rect x="0" y="0" width="600" height="140" fill="#1e293b"/>
  <text x="40" y="62" font-family="Inter, system-ui, sans-serif" font-size="30" font-weight="700" fill="#f8fafc">QUANTA</text>
  <text x="40" y="90" font-family="Inter, system-ui, sans-serif" font-size="13" fill="#94a3b8">Engineering Manager · Berlin · quanta@example.com</text>
  <rect x="40" y="110" width="120" height="22" rx="4" fill="#0ea5e9"/>
  <text x="100" y="125" text-anchor="middle" font-family="Inter, system-ui, sans-serif" font-size="10" font-weight="700" fill="#ffffff" letter-spacing="2">HIRE ME</text>
  <!-- Two columns -->
  <rect x="40"  y="180" width="320" height="800" fill="#f8fafc"/>
  <rect x="380" y="180" width="180" height="800" fill="#f1f5f9"/>
  <!-- Left column -->
  <text x="40" y="210" font-family="Inter, system-ui, sans-serif" font-size="11" font-weight="700" fill="#1e293b" letter-spacing="3">SUMMARY</text>
  <rect x="40" y="230" width="320" height="6" rx="2" fill="#cbd5e1"/>
  <rect x="40" y="242" width="290" height="6" rx="2" fill="#cbd5e1"/>
  <rect x="40" y="254" width="270" height="6" rx="2" fill="#cbd5e1"/>
  <text x="40" y="300" font-family="Inter, system-ui, sans-serif" font-size="11" font-weight="700" fill="#1e293b" letter-spacing="3">EXPERIENCE</text>
  <rect x="40" y="320" width="240" height="9" rx="2" fill="#0f172a"/>
  <rect x="40" y="336" width="160" height="7" rx="2" fill="#0ea5e9"/>
  <rect x="40" y="354" width="320" height="5" rx="2" fill="#cbd5e1"/>
  <rect x="40" y="364" width="300" height="5" rx="2" fill="#cbd5e1"/>
  <rect x="40" y="374" width="280" height="5" rx="2" fill="#cbd5e1"/>
  <rect x="40" y="400" width="240" height="9" rx="2" fill="#0f172a"/>
  <rect x="40" y="416" width="160" height="7" rx="2" fill="#0ea5e9"/>
  <rect x="40" y="434" width="320" height="5" rx="2" fill="#cbd5e1"/>
  <rect x="40" y="444" width="280" height="5" rx="2" fill="#cbd5e1"/>
  <!-- Right column -->
  <text x="400" y="210" font-family="Inter, system-ui, sans-serif" font-size="11" font-weight="700" fill="#1e293b" letter-spacing="3">SKILLS</text>
  <rect x="400" y="230" width="140" height="6" rx="2" fill="#94a3b8"/>
  <rect x="400" y="246" width="120" height="6" rx="2" fill="#94a3b8"/>
  <rect x="400" y="262" width="130" height="6" rx="2" fill="#94a3b8"/>
  <rect x="400" y="278" width="110" height="6" rx="2" fill="#94a3b8"/>
  <rect x="400" y="294" width="130" height="6" rx="2" fill="#94a3b8"/>
  <text x="400" y="340" font-family="Inter, system-ui, sans-serif" font-size="11" font-weight="700" fill="#1e293b" letter-spacing="3">EDUCATION</text>
  <rect x="400" y="360" width="140" height="9" rx="2" fill="#0f172a"/>
  <rect x="400" y="376" width="120" height="7" rx="2" fill="#475569"/>
  <rect x="400" y="394" width="140" height="5" rx="2" fill="#cbd5e1"/>
</svg>
