<svg xmlns="http://www.w3.org/2000/svg" viewBox="0 0 600 800" preserveAspectRatio="xMidYMid slice">
  <rect width="600" height="800" fill="#ffffff"/>
  <rect x="0" y="0" width="600" height="6" fill="#1e3a8a"/>
  <rect x="0" y="794" width="600" height="6" fill="#1e3a8a"/>
  <!-- Header -->
  <text x="300" y="70" text-anchor="middle" font-family="Georgia, 'Times New Roman', serif" font-size="14" letter-spacing="4" fill="#1e3a8a">SENTINEL RESUME</text>
  <text x="300" y="120" text-anchor="middle" font-family="Georgia, 'Times New Roman', serif" font-size="34" font-weight="700" fill="#111827">JAMES LINWOOD</text>
  <text x="300" y="148" text-anchor="middle" font-family="Georgia, 'Times New Roman', serif" font-size="13" fill="#1e3a8a">DIRECTOR OF OPERATIONS · NEW YORK</text>
  <line x1="200" y1="172" x2="400" y2="172" stroke="#1e3a8a" stroke-width="1"/>
  <!-- Two-column classic -->
  <text x="40" y="220" font-family="Georgia, 'Times New Roman', serif" font-size="12" font-weight="700" letter-spacing="2" fill="#1e3a8a">OBJECTIVE</text>
  <rect x="40" y="234" width="240" height="6" rx="2" fill="#e5e7eb"/>
  <rect x="40" y="246" width="220" height="6" rx="2" fill="#e5e7eb"/>
  <rect x="40" y="258" width="200" height="6" rx="2" fill="#e5e7eb"/>
  <text x="320" y="220" font-family="Georgia, 'Times New Roman', serif" font-size="12" font-weight="700" letter-spacing="2" fill="#1e3a8a">CONTACT</text>
  <rect x="320" y="234" width="240" height="6" rx="2" fill="#e5e7eb"/>
  <rect x="320" y="246" width="220" height="6" rx="2" fill="#e5e7eb"/>
  <rect x="320" y="258" width="180" height="6" rx="2" fill="#e5e7eb"/>
  <text x="40" y="320" font-family="Georgia, 'Times New Roman', serif" font-size="12" font-weight="700" letter-spacing="2" fill="#1e3a8a">EXPERIENCE</text>
  <rect x="40" y="338" width="220" height="9" rx="2" fill="#111827"/>
  <text x="40" y="358" font-family="Georgia, 'Times New Roman', serif" font-size="11" fill="#1e3a8a">Acme Corp · 2018 — Present</text>
  <rect x="40" y="372" width="240" height="5" rx="2" fill="#e5e7eb"/>
  <rect x="40" y="382" width="220" height="5" rx="2" fill="#e5e7eb"/>
  <rect x="40" y="392" width="200" height="5" rx="2" fill="#e5e7eb"/>
  <rect x="40" y="416" width="220" height="9" rx="2" fill="#111827"/>
  <text x="40" y="436" font-family="Georgia, 'Times New Roman', serif" font-size="11" fill="#1e3a8a">BlueLine · 2014 — 2018</text>
  <rect x="40" y="450" width="240" height="5" rx="2" fill="#e5e7eb"/>
  <rect x="40" y="460" width="210" height="5" rx="2" fill="#e5e7eb"/>
  <text x="320" y="320" font-family="Georgia, 'Times New Roman', serif" font-size="12" font-weight="700" letter-spacing="2" fill="#1e3a8a">EDUCATION</text>
  <rect x="320" y="338" width="220" height="9" rx="2" fill="#111827"/>
  <rect x="320" y="354" width="180" height="6" rx="2" fill="#6b7280"/>
  <rect x="320" y="370" width="240" height="5" rx="2" fill="#e5e7eb"/>
  <text x="320" y="410" font-family="Georgia, 'Times New Roman', serif" font-size="12" font-weight="700" letter-spacing="2" fill="#1e3a8a">SKILLS</text>
  <rect x="320" y="428" width="240" height="6" rx="2" fill="#e5e7eb"/>
  <rect x="320" y="440" width="200" height="6" rx="2" fill="#e5e7eb"/>
  <rect x="320" y="452" width="220" height="6" rx="2" fill="#e5e7eb"/>
</svg>
