<svg xmlns="http://www.w3.org/2000/svg" viewBox="0 0 600 800" preserveAspectRatio="xMidYMid slice">
  <rect width="600" height="800" fill="#ffffff"/>
  <rect x="60" y="60" width="480" height="76" fill="#000000"/>
  <text x="80" y="92" font-family="Arial, 'Helvetica Neue', sans-serif" font-size="22" font-weight="700" fill="#ffffff">VECTOR</text>
  <text x="80" y="118" font-family="Arial, 'Helvetica Neue', sans-serif" font-size="11" fill="#ffffff">Mechanical Engineer · vector@example.com</text>
  <text x="60" y="176" font-family="Arial, 'Helvetica Neue', sans-serif" font-size="13" font-weight="700" fill="#000000">Summary</text>
  <rect x="60" y="190" width="480" height="6" rx="2" fill="#d4d4d4"/>
  <rect x="60" y="202" width="470" height="6" rx="2" fill="#d4d4d4"/>
  <rect x="60" y="214" width="430" height="6" rx="2" fill="#d4d4d4"/>
  <text x="60" y="252" font-family="Arial, 'Helvetica Neue', sans-serif" font-size="13" font-weight="700" fill="#000000">Skills</text>
  <text x="60" y="274" font-family="Arial, 'Helvetica Neue', sans-serif" font-size="11" fill="#000000">SolidWorks, ANSYS, MATLAB, GD&amp;T, FEA, CFD, GD&amp;T, DFM, Six Sigma, Project Mgmt</text>
  <text x="60" y="310" font-family="Arial, 'Helvetica Neue', sans-serif" font-size="13" font-weight="700" fill="#000000">Experience</text>
  <text x="60" y="334" font-family="Arial, 'Helvetica Neue', sans-serif" font-size="12" font-weight="700" fill="#000000">VECTOR INDUSTRIES — Senior Mechanical Engineer</text>
  <text x="60" y="352" font-family="Arial, 'Helvetica Neue', sans-serif" font-size="11" fill="#000000">2017 — Present</text>
  <rect x="60" y="368" width="480" height="5" rx="2" fill="#d4d4d4"/>
  <rect x="60" y="378" width="470" height="5" rx="2" fill="#d4d4d4"/>
  <rect x="60" y="388" width="450" height="5" rx="2" fill="#d4d4d4"/>
  <rect x="60" y="398" width="430" height="5" rx="2" fill="#d4d4d4"/>
  <text x="60" y="426" font-family="Arial, 'Helvetica Neue', sans-serif" font-size="12" font-weight="700" fill="#000000">VECTOR INDUSTRIES — Mechanical Engineer</text>
  <text x="60" y="444" font-family="Arial, 'Helvetica Neue', sans-serif" font-size="11" fill="#000000">2013 — 2017</text>
  <rect x="60" y="460" width="480" height="5" rx="2" fill="#d4d4d4"/>
  <rect x="60" y="470" width="440" height="5" rx="2" fill="#d4d4d4"/>
  <text x="60" y="510" font-family="Arial, 'Helvetica Neue', sans-serif" font-size="13" font-weight="700" fill="#000000">Education</text>
  <text x="60" y="534" font-family="Arial, 'Helvetica Neue', sans-serif" font-size="12" font-weight="700" fill="#000000">M.Eng. Mechanical Engineering</text>
</svg>